<svg xmlns="http://www.w3.org/2000/svg" viewBox="0 0 512 512"><defs><style>.cls-1{fill:#cc7606;}</style></defs><title>Fichier 3</title><g id="Calque_2" data-name="Calque 2"><g id="Calque_1-2" data-name="Calque 1"><path class="cls-1" d="M91,452H421v60H91Z"/><path class="cls-1" d="M421,30V0H91V30H0v82.21c0,68.34,54.65,123.86,122,128,17.67,21.6,39.74,32.8,57.31,41.72,23.69,12,32,17.37,32,30.29.06,19-12.32,27.61-34.22,41.16-22.18,13.72-49,31.53-54.83,68.62H389.75c-5.78-37.09-32.64-54.9-54.82-68.62-21.9-13.55-34.28-22.15-34.22-41.16,0-12.92,8.33-18.27,32-30.29C350.3,273,372.37,261.81,390,240.21c67.31-4.14,122-59.66,122-128V30ZM30,112.21V60H91v76c0,29.36,4.57,52.32,11.78,70.77C61.49,194.94,30,157.26,30,112.21ZM254.9,227c-21.25,0-43.6-7.52-57.77-18.81l15.94-29.88c11.51,12.4,24.78,18.81,38.73,18.81,15.49,0,23.9-7.52,23.9-20.14,0-13.06-8.63-19.47-24.12-19.47H226.79v-21l34.53-35.86H204.88V70.53H307.13V92.89L268.4,133.17l7.3,1.11c22.58,3.54,38.51,18.37,38.51,42.27C314.21,206.21,291,227,254.9,227ZM482,112.21c0,45.05-31.48,82.73-72.78,94.56C416.43,188.32,421,165.36,421,136V60h61Z"/></g></g></svg>