<svg xmlns="http://www.w3.org/2000/svg" viewBox="0 0 512 512"><defs><style>.cls-1{fill:#fcc447;}</style></defs><title>Fichier 2</title><g id="Calque_2" data-name="Calque 2"><g id="Calque_1_-_copie_2" data-name="Calque 1 - copie 2"><path class="cls-1" d="M91,452H421v60H91Z"/><path class="cls-1" d="M421,30V0H91V30H0v82.21c0,68.34,54.65,123.86,122,128,17.67,21.6,39.74,32.8,57.31,41.72,23.69,12,32,17.37,32,30.29.06,19-12.32,27.61-34.22,41.16-22.18,13.72-49,31.53-54.83,68.62H389.75c-5.78-37.09-32.64-54.9-54.82-68.62-21.9-13.55-34.28-22.15-34.22-41.16,0-12.92,8.33-18.27,32-30.29C350.3,273,372.37,261.81,390,240.21c67.31-4.14,122-59.66,122-128V30ZM30,112.21V60H91v76c0,29.36,4.57,52.32,11.78,70.77C61.49,194.94,30,157.26,30,112.21Zm250.07,113h-39.4V101.74H212.12V70.09h67.95ZM482,112.21c0,45.05-31.48,82.73-72.78,94.56C416.43,188.32,421,165.36,421,136V60h61Z"/></g></g></svg>